# xmcd CD database file
#
# Track frame offsets:
#	150
#	26421
#	51125
#	66102
#	87601
#	109222
#	130739
#	153962
#	178962
#	201680
#	225905
#	244923
#	265630
#
# Disc length: 3803 seconds
#
# Revision: 0
# Processed by: cddbd v1.5.1PL2 Copyright (c) Steve Scherf et al.
# Submitted via: CDex 1.51
#
DISCID=b30ed90d
DTITLE=Kinki Kids - Kinki Single Selection II
DYEAR=2004
DGENRE=Misc
TTITLE0=夏の王様
TTITLE1=もう君以外愛せない
TTITLE2=ボクの背中には羽根がある
TTITLE3=情熱
TTITLE4=Hey!みんな元気かい?
TTITLE5=愛のかたまり
TTITLE6=カナシミ ブルー
TTITLE7=solitude〜真実のサヨナラ〜
TTITLE8=永遠のBLOODS
TTITLE9=心に夢を君には愛を
TTITLE10=ギラ☆ギラ
TTITLE11=薄荷キャンディー
TTITLE12=ね、がんばるよ。
EXTD=YEAR: 2004
EXTT0=
EXTT1=
EXTT2=
EXTT3=
EXTT4=
EXTT5=
EXTT6=
EXTT7=
EXTT8=
EXTT9=
EXTT10=
EXTT11=
EXTT12=
PLAYORDER=
